# AST/ASF file generated using VICON BodyLanguage
# -----------------------------------------------
:version 1.10
:name VICON
:units
  mass 1.0
  length 0.45
  angle deg
:documentation
   .ast/.asf automatically generated from VICON data using
   VICON BodyBuilder and BodyLanguage model FoxedUp or BRILLIANT.MOD
:root
   order TX TY TZ RX RY RZ
   axis XYZ
   position 0 0 0  
   orientation 0 0 0 
:bonedata
  begin
     id 1 
     name lhipjoint
     direction 0.623415 -0.642378 0.445763 
     length 2.49859 
     axis 0 0 0  XYZ
  end
  begin
     id 2 
     name lfemur
     direction 0.34202 -0.939693 0  
     length 6.69689  
     axis 0 0 20  XYZ
    dof rx ry rz
    limits (-160.0 20.0)
           (-70.0 70.0)
           (-60.0 70.0)
  end
  begin
     id 3 
     name ltibia
     direction 0.34202 -0.939693 0   
     length 7.37574   
     axis 0 0 20   XYZ
    dof rx
    limits (-10.0 170.0)
  end
  begin
     id 4 
     name lfoot
     direction 0.084323 -0.231675 0.969132   
     length 2.09111   
     axis -90 7.62852e-016 20   XYZ
    dof rx rz
    limits (-45.0 90.0)
           (-70.0 20.0)
  end
  begin
     id 5 
     name ltoes
     direction 1.5357e-011 -4.21957e-011 1   
     length 1.04989   
     axis -90 7.62852e-016 20   XYZ
    dof rx
    limits (-90.0 20.0)
  end
  begin
     id 6 
     name rhipjoint
     direction -0.605402 -0.653903 0.45376   
     length 2.45455  
     axis 0 0 0  XYZ 
  end
  begin
     id 7 
     name rfemur
     direction -0.34202 -0.939693 0   
     length 6.64523   
     axis 0 0 -20   XYZ
    dof rx ry rz
    limits (-160.0 20.0)
           (-70.0 70.0)
           (-70.0 60.0)
  end
  begin
     id 8 
     name rtibia
     direction -0.34202 -0.939693 0   
     length 7.3339   
     axis 0 0 -20   XYZ
    dof rx
    limits (-10.0 170.0)
 end
 begin
     id 9 
     name rfoot
     direction -0.120854 -0.332043 0.93549   
     length 2.23135  
     axis -90 -7.62852e-016 -20   XYZ
    dof rx rz
    limits (-45.0 90.0)
           (-20.0 70.0)
  end
  begin
     id 10 
     name rtoes
     direction -1.53563e-011 -4.21914e-011 1   
     length 1.10614   
     axis -90 -7.62852e-016 -20   XYZ
    dof rx
    limits (-90.0 20.0)
  end
  begin
     id 11 
     name lowerback
     direction 0.0319682 0.998615 -0.0417941   
     length 2.02718   
     axis 0 0 0   XYZ
    dof rx ry rz
    limits (-20.0 45.0)
           (-30.0 30.0)
           (-30.0 30.0)
  end
  begin
     id 12 
     name upperback
     direction 7.63181e-005 0.995808 0.0914691   
     length 1.97539   
     axis 0 0 0   XYZ
    dof rx ry rz
    limits (-20.0 45.0)
           (-30.0 30.0)
           (-30.0 30.0)
  end
  begin
     id 13 
     name thorax
     direction -0.016423 0.993627 0.111514   
     length 2.00349   
     axis 0 0 0   XYZ
    dof rx ry rz
    limits (-20.0 45.0)
           (-30.0 30.0)
           (-30.0 30.0)
  end
  begin
     id 14 
     name lowerneck
     direction -0.174763 0.981668 -0.0760716   
     length 1.71436   
     axis 0 0 0   XYZ
    dof rx ry rz
    limits (-20.0 45.0)
           (-30.0 30.0)
           (-30.0 30.0)
  end
  begin
     id 15 
     name upperneck
     direction 0.345458 0.934587 -0.0848868   
     length 1.72805   
     axis 0 0 0   XYZ
    dof rx ry rz
    limits (-20.0 45.0)
           (-30.0 30.0)
           (-30.0 30.0)
  end
  begin
     id 16
     name head
     direction 0.13001 0.989848 -0.0574291  
     length 1.767  
     axis 0 0 0   XYZ
    dof rx ry rz
    limits (-20.0 45.0)
           (-30.0 30.0)
           (-30.0 30.0)
  end
  begin
     id 17 
     name lclavicle
     direction 0.952951 0.290122 0.0878234  
     length 3.54654  
     axis 0 0 0   XYZ
    dof ry rz
    limits (-20.0 10.0)
           (0.0 20.0)
  end
  begin
     id 18 
     name lhumerus
     direction 1 -4.48957e-011 -4.56525e-028   
     length 5.19807   
     axis 180 -30 -90   XYZ
    dof rx ry rz
    limits (-60.0 90.0)
           (-90.0 90.0)
           (-90.0 90.0)
  end
  begin
     id 19
     name lradius
     direction 1 -4.48979e-011 -2.0317e-027   
     length 3.0937   
     axis 180 -30 -90   XYZ
    dof rx
    limits (-10.0 170.0)
  end
  begin
     id 20
     name lwrist
     direction 1 -4.48953e-011 -3.05809e-027   
     length 1.54685   
     axis 8.48514e-016 90 90   XYZ
    dof ry
    limits (-180.0 0.0)
 end
  begin
     id 21 
     name lhand
     direction 1 -4.48952e-011 -6.11639e-027   
     length 0.672632   
     axis 3.9013e-015 90 90   XYZ
    dof rx rz
    limits (-90.0 90.0)
           (-45.0 45.0)
  end
  begin
     id 22 
     name lfingers
     direction 1 -4.48925e-011 -1.22426e-026   
     length 0.542293   
     axis 7.80276e-015 90 90   XYZ
    dof rx
    limits (0.0 90.0)
  end
  begin
     id 23
     name lthumb
     direction 0.707107 -6.3486e-011 0.707107   
     length 0.778628   
     axis -90 45 5.37419e-014   XYZ
    dof rx rz
    limits (-45.0 45.0)
           (-45.0 45.0)
  end
  begin
     id 24 
     name rclavicle
     direction -0.960732 0.273675 -0.0457849   
     length 3.52079  
     axis 0 0 0   XYZ 
    dof ry rz
    limits (-10.0 20.0)
           (-20.0 0.0)
  end
  begin
     id 25 
     name rhumerus
     direction -1 -4.48976e-011 -1.63613e-027  
     length 5.45222   
     axis 180 30 90   XYZ
    dof rx ry rz
    limits (-90.0 60.0)
           (-90.0 90.0)
           (-90.0 90.0)
  end
  begin
     id 26 
     name rradius
     direction -1 -4.48957e-011 -7.00033e-028   
     length 3.01284   
     axis 180 30 90   XYZ
    dof rx
    limits (-10.0 170.0)
  end
  begin
     id 27 
     name rwrist
     direction -1 -4.48983e-011 -3.05543e-027   
     length 1.50642   
     axis 8.48514e-016 -90 -90   XYZ
    dof ry
    limits (-180.0 0.0)
  end
  begin
     id 28
     name rhand
     direction -1 -4.48984e-011 -6.11072e-027   
     length 0.622296   
     axis 3.9013e-015 -90 -90   XYZ
    dof rx rz
    limits (-90.0 90.0)
           (-45.0 45.0)
  end
  begin
     id 29
     name rfingers
     direction -1 -4.48865e-011 -1.22637e-026   
     length 0.501711   
     axis 7.80276e-015 -90 -90   XYZ
    dof rx
    limits (0.0 90.0)
  end
  begin
     id 30
     name rthumb
     direction -0.707107 -6.34932e-011 0.707107   
     length 0.72036   
     axis -90 -45 -5.37419e-014   XYZ
    dof rx rz
    limits (-45.0 45.0)
           (-45.0 45.0)
  end
:hierarchy
  begin
    root lhipjoint rhipjoint lowerback
    lhipjoint lfemur
    lfemur ltibia
    ltibia lfoot
    lfoot ltoes
    rhipjoint rfemur
    rfemur rtibia
    rtibia rfoot
    rfoot rtoes
    lowerback upperback
    upperback thorax
    thorax lowerneck lclavicle rclavicle
    lowerneck upperneck
    upperneck head
    lclavicle lhumerus
    lhumerus lradius
    lradius lwrist
    lwrist lhand lthumb
    lhand lfingers
    rclavicle rhumerus
    rhumerus rradius
    rradius rwrist
    rwrist rhand rthumb
    rhand rfingers
  end

#!OML:ASF H:\Not Pregnant\Project 1\Capture day 1\Session 1\non-pregnant.ASF
:FULLY-SPECIFIED
:DEGREES
126
root -0.625013 14.9891 35.875 182.929 -31.5303 -166.823
lowerback -4.49714 0.123543 13.8
upperback -4.81112 -0.581882 2.33306
thorax -2.6582 -0.857855 -5.26143
lowerneck -2.57246 1.72353 -25.9866
upperneck 10.1123 -0.110684 32.7469
head 3.07249 -0.239766 16.3098
rclavicle -6.71519e-014 1.51076e-014
rhumerus -64.6009 22.1201 -80.6559
rradius 136.914
rwrist -17.0425
rhand -12.1964 -6.14507
rfingers 7.12502
rthumb 13.8677 -35.6627
lclavicle -6.71519e-014 1.51076e-014
lhumerus -43.8579 -14.9095 96.3838
lradius 61.6514
lwrist 40.2225
lhand -14.4276 -17.0268
lfingers 7.12502
lthumb 11.7168 12.6256
rfemur -20.1521 -12.9292 26.7479
rtibia 38.3088
rfoot -32.8314 29.1981
rtoes -4.31009
lfemur -41.1115 25.4306 -2.11685
ltibia 50.0972
lfoot -12.5971 25.2941
ltoes -6.0193
127
root -0.655936 14.9813 35.8757 183.003 -31.1634 -166.794
lowerback -4.51937 0.0531326 13.8691
upperback -4.80394 -0.687673 2.38797
thorax -2.65914 -0.913938 -5.24313
lowerneck -2.84859 1.79383 -25.868
upperneck 10.3915 0.0202067 32.5403
head 3.1599 -0.149387 16.1992
rclavicle 3.4896e-014 -9.323e-014
rhumerus -64.6498 21.9484 -80.3672
rradius 137.432
rwrist -17.3819
rhand -12.1086 -6.23645
rfingers 7.12502
rthumb 13.9523 -35.7483
lclavicle 3.4896e-014 -9.323e-014
lhumerus -43.8278 -14.8373 96.4009
lradius 61.6742
lwrist 40.2111
lhand -14.3918 -17.1242
lfingers 7.12502
lthumb 11.7513 12.5262
rfemur -20.2021 -12.9652 26.6799
rtibia 38.3378
rfoot -32.9278 29.5714
rtoes -4.26852
lfemur -41.1663 25.8333 -2.14372
ltibia 50.4165
lfoot -12.8113 25.2717
ltoes -6.10565
128
root -0.687984 14.9732 35.8771 183.083 -30.8304 -166.763
lowerback -4.53894 -0.0181823 13.9318
upperback -4.80797 -0.793545 2.4406
thorax -2.67348 -0.971461 -5.22339
lowerneck -3.09462 1.85817 -25.757
upperneck 10.6497 0.136866 32.3503
head 3.24098 -0.0694887 16.0982
rclavicle 1.14115e-014 -3.18055e-014
rhumerus -64.7314 21.7713 -80.1163
rradius 137.941
rwrist -17.7471
rhand -12.0202 -6.29244
rfingers 7.12502
rthumb 14.0375 -35.7984
lclavicle 1.14115e-014 -3.18055e-014
lhumerus -43.8106 -14.7952 96.4346
lradius 61.6986
lwrist 40.1839
lhand -14.3363 -17.2043
lfingers 7.12502
lthumb 11.8048 12.443
rfemur -20.2526 -13.0219 26.6096
rtibia 38.3573
rfoot -33.0951 29.8752
rtoes -4.42661
lfemur -41.261 26.2241 -2.19386
ltibia 50.7496
lfoot -13.0136 25.2474
ltoes -6.21069
129
root -0.721321 14.9651 35.879 183.165 -30.5271 -166.728
lowerback -4.55793 -0.0965527 13.9827
upperback -4.81162 -0.908657 2.50183
thorax -2.68893 -1.03322 -5.18812
lowerneck -3.35252 1.91279 -25.6793
upperneck 10.896 0.245081 32.1825
head 3.32418 0.00594431 16.0168
rclavicle 8.69869e-014 -1.17283e-014
rhumerus -64.8147 21.6123 -79.8901
rradius 138.431
rwrist -18.094
rhand -11.9165 -6.33265
rfingers 7.12502
rthumb 14.1375 -35.8317
lclavicle 8.69869e-014 -1.17283e-014
lhumerus -43.7812 -14.7579 96.4834
lradius 61.7274
lwrist 40.1593
lhand -14.276 -17.2655
lfingers 7.12502
lthumb 11.8629 12.3785
rfemur -20.3027 -13.094 26.5382
rtibia 38.3704
rfoot -33.2982 30.1349
rtoes -4.68941
lfemur -41.3853 26.6008 -2.2611
ltibia 51.0928
lfoot -13.2127 25.2232
ltoes -6.32151
130
root -0.756097 14.9571 35.8812 183.249 -30.2475 -166.69
lowerback -4.57972 -0.177264 14.0207
upperback -4.81635 -1.02732 2.57069
thorax -2.70389 -1.09641 -5.13771
lowerneck -3.59443 1.96549 -25.6215
upperneck 11.1175 0.352515 32.0296
head 3.39801 0.0790767 15.9463
rclavicle -3.59521e-014 7.85199e-015
rhumerus -64.9131 21.4637 -79.6934
rradius 138.896
rwrist -18.3768
rhand -11.8075 -6.34195
rfingers 7.12502
rthumb 14.2425 -35.8336
lclavicle -3.59521e-014 7.85199e-015
lhumerus -43.7408 -14.7267 96.5495
lradius 61.7503
lwrist 40.1287
lhand -14.1903 -17.325
lfingers 7.12502
lthumb 11.9456 12.3141
rfemur -20.3518 -13.1651 26.4636
rtibia 38.3793
rfoot -33.5107 30.3632
rtoes -4.98545
lfemur -41.5304 26.9691 -2.3438
ltibia 51.4419
lfoot -13.4066 25.1974
ltoes -6.43933
131
root -0.792406 14.9493 35.8834 183.331 -29.9893 -166.649
lowerback -4.6017 -0.259871 14.0475
upperback -4.81847 -1.14855 2.64655
thorax -2.71564 -1.16011 -5.07377
lowerneck -3.83208 2.01281 -25.5838
upperneck 11.3148 0.457026 31.8916
head 3.46557 0.149886 15.887
rclavicle -5.20567e-015 5.01931e-014
rhumerus -65.0158 21.3283 -79.5265
rradius 139.328
rwrist -18.5685
rhand -11.7113 -6.34411
rfingers 7.12502
rthumb 14.3352 -35.8292
lclavicle -5.20567e-015 5.01931e-014
lhumerus -43.6697 -14.6959 96.6295
lradius 61.7596
lwrist 40.093
lhand -14.1074 -17.3872
lfingers 7.12502
lthumb 12.0256 12.2473
rfemur -20.3989 -13.2294 26.3853
rtibia 38.3853
rfoot -33.7447 30.5606
rtoes -5.29401
lfemur -41.6886 27.329 -2.43872
ltibia 51.7938
lfoot -13.5956 25.1715
ltoes -6.57702
